<?xml version="1.0" standalone="no"?><!DOCTYPE svg PUBLIC "-//W3C//DTD SVG 1.1//EN" "http://www.w3.org/Graphics/SVG/1.1/DTD/svg11.dtd"><svg class="icon" width="24px" height="23.05px" viewBox="0 0 1066 1024" version="1.1" xmlns="http://www.w3.org/2000/svg"><path d="M504.96 529.066667v302.933333h42.666667v-302.933333h294.4v-42.666667h-294.4V192h-42.666667v294.4h-302.933333v42.666667h302.933333z" fill="#000000" /><path d="M474.794667 862.165333a42.666667 42.666667 0 0 1-12.501334-30.165333v-260.266667h-260.266666a42.666667 42.666667 0 0 1-42.666667-42.666666v-42.666667a42.666667 42.666667 0 0 1 42.666667-42.666667h260.266666V192a42.666667 42.666667 0 0 1 42.666667-42.666667h42.666667a42.666667 42.666667 0 0 1 42.666666 42.666667v251.733333h251.733334a42.666667 42.666667 0 0 1 42.666666 42.666667v42.666667a42.666667 42.666667 0 0 1-42.666666 42.666666h-251.733334v260.266667a42.666667 42.666667 0 0 1-42.666666 42.666667h-42.666667a42.666667 42.666667 0 0 1-30.165333-12.501334z m72.832-333.098666h294.4v-42.666667h-294.4V192h-42.666667v294.4h-302.933333v42.666667h302.933333v302.933333h42.666667v-302.933333z" fill="#FFFFFF" /></svg>