<svg t="1631585725525" class="icon" viewBox="0 0 1066 1024" version="1.1" xmlns="http://www.w3.org/2000/svg" p-id="20706" width="24" height="24"><path d="M424.661333 801.877333a21.333333 21.333333 0 0 1-9.472 5.546667l-153.6 26.154667a21.333333 21.333333 0 0 1-26.154666-26.197334l33.066666-146.688a21.333333 21.333333 0 0 1 5.461334-9.472l406.698666-406.698666a106.581333 106.581333 0 0 1 150.698667 150.698666l-406.698667 406.656z" fill="#000000" p-id="20707"></path><path d="M426.410667 848.554667a43.776 43.776 0 0 1-4.053334 0.896l-152.064 25.941333a64 64 0 0 1-59.562666-17.109333l30.165333-30.208a21.333333 21.333333 0 0 0 20.736 5.546666l153.557333-26.24a21.333333 21.333333 0 0 0 9.472-5.461333l30.165334 30.165333a64 64 0 0 1-28.416 16.469334zM854.442667 279.082667a106.538667 106.538667 0 0 1-23.082667 116.138666l-406.698667 406.656 30.165334 30.208 406.698666-406.698666a149.12 149.12 0 0 0 32.341334-162.602667l-39.424 16.298667z m0 0l39.424-16.298667a149.205333 149.205333 0 0 0-243.370667-48.426667l-406.698667 406.698667 30.08 30.08-30.08-30.08a64 64 0 0 0-16.938666 30.293333l-32.896 145.962667a64 64 0 0 0 16.768 60.928l30.165333-30.165333a21.333333 21.333333 0 0 1-5.461333-20.693334l33.066666-146.688a21.333333 21.333333 0 0 1 5.461334-9.472l406.698666-406.698666a106.538667 106.538667 0 0 1 173.781334 34.56z" fill="#FFFFFF" p-id="20708"></path><path d="M759.125333 487.424l-170.666666-170.666667 36.181333-36.181333 170.666667 170.666667-36.181334 36.181333z" fill="#FFFFFF" p-id="20709"></path></svg>