<svg t="1631585786027" class="icon" viewBox="0 0 1024 1024" version="1.1" xmlns="http://www.w3.org/2000/svg" p-id="21234" width="24" height="24"><path d="M597.333333 221.866667H384V170.666667h213.333333v51.2zM597.333333 883.2H384v-51.2h213.333333v51.2zM460.8 832V221.866667H512v610.133333h-51.2z" fill="#000000" p-id="21235"></path><path d="M384 264.533333a42.666667 42.666667 0 0 1-42.666667-42.666666V170.666667a42.666667 42.666667 0 0 1 42.666667-42.666667h213.333333a42.666667 42.666667 0 0 1 42.666667 42.666667v51.2a42.666667 42.666667 0 0 1-42.666667 42.666666h-42.666666v524.8h42.666666a42.666667 42.666667 0 0 1 42.666667 42.666667v51.2a42.666667 42.666667 0 0 1-42.666667 42.666667H384a42.666667 42.666667 0 0 1-42.666667-42.666667v-51.2a42.666667 42.666667 0 0 1 42.666667-42.666667h34.133333V264.533333H384z m76.8 567.466667H384v51.2h213.333333v-51.2h-85.333333V221.866667h85.333333V170.666667H384v51.2h76.8v610.133333z" fill="#FFFFFF" p-id="21236"></path></svg>